<?xml version="1.0" encoding="UTF-8" standalone="no"?>
<svg
   width="1080"
   height="1080"
   version="1.1"
   id="svg83"
   sodipodi:docname="ONZE_LOGO_TEX_BLACK (2).svg"
   inkscape:version="1.4.2 (ebf0e940, 2025-05-08)"
   inkscape:export-filename="ONZE_LOGO_TEX_BLACK_VECTOR_EDITED.svg"
   inkscape:export-xdpi="96"
   inkscape:export-ydpi="96"
   xmlns:inkscape="http://www.inkscape.org/namespaces/inkscape"
   xmlns:sodipodi="http://sodipodi.sourceforge.net/DTD/sodipodi-0.dtd"
   xmlns="http://www.w3.org/2000/svg"
   xmlns:svg="http://www.w3.org/2000/svg">
  <sodipodi:namedview
     id="namedview83"
     pagecolor="#ffffff"
     bordercolor="#000000"
     borderopacity="0.25"
     inkscape:showpageshadow="2"
     inkscape:pageopacity="0.0"
     inkscape:pagecheckerboard="0"
     inkscape:deskcolor="#d1d1d1"
     inkscape:zoom="1.798473"
     inkscape:cx="445.09982"
     inkscape:cy="520.44151"
     inkscape:window-width="3000"
     inkscape:window-height="1623"
     inkscape:window-x="7"
     inkscape:window-y="33"
     inkscape:window-maximized="0"
     inkscape:current-layer="svg83" />
  <path
     d="M 0,0 H 1080 V 1080 H 0 Z"
     id="path1"
     sodipodi:nodetypes="ccccc" />
  <defs
     id="defs2">
    <linearGradient
       id="gradient_0"
       gradientUnits="userSpaceOnUse"
       x1="376.30942"
       y1="471.76462"
       x2="183.21452"
       y2="608.62091">
      <stop
         offset="0"
         stop-color="#C90098"
         id="stop1"
         style="stop-color:#e00096;stop-opacity:1;" />
      <stop
         offset="1"
         stop-color="#ED019B"
         id="stop2" />
    </linearGradient>
  </defs>
  <path
     fill="url(#gradient_0)"
     d="m 223.946,473.068 c -0.695,-0.587 -1.279,-1.191 -1.9,-1.853 l 0.065,-1.045 c 2.18185,-0.19858 7.93797,-0.65671 9.75097,-0.68471 10.01819,-0.15132 23.34886,0.17854 35.09286,0.36398 24.94525,0.0582 44.75478,-0.0145 69.77117,-0.0383 8.393,-0.113 37.015,-1.765 43.466,-0.06 2.421,2.335 4.827,4.685 7.218,7.05 1.533,1.539 3.154,3.042 4.503,4.748 -11.104,23.588 -23.204,46.804 -34.848,70.136 l -14.088,28.201 c -2.391,4.79 -4.602,9.858 -7.274,14.488 -1.647,3.348 -6.037,14.703 -9.104,15.711 -0.239,0.078 -0.493,0.096 -0.74,0.144 l -0.38759,0.7113 c -6.506,0.005 -15.71029,-0.0163 -22.73706,0.004 -5.43789,-0.002 -13.29324,-0.078 -18.67424,-0.078 -18.7439,-0.0132 -37.48611,-0.34567 -56.15111,-0.56967 -13.959,-0.168 -27.939,0.383 -41.893,0.023 -4.381,-3.385 -8.213,-7.878 -11.898,-11.997 3.506,-5.866 6.209,-12.138 9.44,-18.151 12.848,-23.921 24.567,-48.481 36.686,-72.781 1.206,-2.419 9.849,-20.682 11.029,-21.762 0.528,-0.483 2.057,-0.89 2.754,-1.163 l -0.634,-1.569 c -3.331,-3.02 -6.349,-6.561 -9.447,-9.829 z"
     id="path2"
     sodipodi:nodetypes="ccccccccccccccccccccccccccc" />
  <path
     d="m 278.046,497.17 c 1.76807,-2.88802 4.93703,-5.73746 5.01066,-8.31673 0.154,-0.159 0.64655,0.0168 0.85955,-0.0432 3.93436,0.2222 12.59854,0.8005 16.71479,0.86695 9.324,1.072 18.814,-0.442 28.042,0.348 1.318,0.112 -0.16495,0.42536 1.10383,0.38147 -1.9594,1.11532 -1.91614,1.59839 -2.88583,3.79853 -3.343,8.549 -8.564,16.902 -12.76,25.098 l -23.938,47.796 c -2.229,4.535 -6.254,10.084 -7.295,14.935 -0.974,1.504 -1.905,3.108 -3.049,4.486 -12.909,0.056 -26.746,0.871 -39.576,-0.361 l 1.996,-4.525 2.529,-4.884 2.829,-5.599 -1.45,-1.544 c 6.025,-15.85 16.21,-30.337 22.673,-46.017 0.596,-1.444 0.917,-1.946 0.32,-3.375 l 1.005,-2.681 c -0.005,-0.254 -0.018,-0.509 -0.013,-0.764 0.045,-2.218 2.078,-5.293 2.842,-7.483 -3.207,1.746 -3.256,8.302 -7.03,10.313 1.007,-2.684 2.352,-5.192 3.658,-7.739 l 1.884,-2.944 c 2.325,-3.802 4.358,-7.85 6.53,-11.747 z"
     id="path3"
     sodipodi:nodetypes="cccccccccccccccccccccccccc" />
  <path
     fill="#ea008d"
     d="m 278.046,497.17 c 1.22012,-2.3723 3.16427,-4.48041 4.23709,-7.09191 0.154,-0.159 1.35566,-2.30393 1.72982,-2.97634 0.25873,0.0374 24.08017,1.64088 44.4667,2.60093 1.42632,-0.004 -0.13139,0.0106 2.71119,-0.0334 -1.77005,1.85894 -2.62195,2.73551 -4.2998,4.53572 -10.657,-0.756 -30.90818,-0.024 -40.775,-0.636 l -1.131,-0.708 c -4.181,2.208 -9.012,19.129 -13.355,23.866 0.583,-6.039 7.639,-12.883 7.591,-18.579 z"
     id="path4"
     sodipodi:nodetypes="ccccccccccc" />
  <path
     fill="#F8AEDE"
     d="M271.63 516.727C275.973 511.99 280.804 495.069 284.985 492.861L286.116 493.569C274.287 519.775 260.398 545.373 247.627 571.151L246.177 569.607C252.202 553.757 262.387 539.27 268.85 523.59C269.446 522.146 269.767 521.644 269.17 520.215L270.175 517.534C270.17 517.28 270.157 517.025 270.162 516.77C270.207 514.552 272.24 511.477 273.004 509.287C269.797 511.033 269.748 517.589 265.974 519.6C266.981 516.916 268.326 514.408 269.632 511.861L271.516 508.917C273.841 505.115 275.874 501.067 278.046 497.17L279.221 498.148C279.269 503.844 272.213 510.688 271.63 516.727Z"
     id="path5" />
  <path
     fill="#fccae7"
     d="m 377.2,471.838 c 0.987,-0.563 0.635,-0.502 1.611,-0.621 0.202,-0.025 0.406,-0.033 0.609,-0.05 -0.646,-0.155 -1.287,-0.306 -1.941,-0.423 l -0.476,-0.081 3.189,-0.912 c 2.421,2.335 4.827,4.685 7.218,7.05 1.533,1.539 3.154,3.042 4.503,4.748 -11.104,23.588 -23.204,46.804 -34.848,70.136 l -14.088,28.201 c -2.391,4.79 -4.602,9.858 -7.274,14.488 -1.647,3.348 -6.037,14.703 -9.104,15.711 -0.239,0.078 -0.493,0.096 -0.74,0.144 -0.797,-3.367 4.735,-14.599 5.896,-18.656 1.983,-6.021 5.048,-11.739 7.575,-17.55 2.728,-6.273 4.87598,-12.72099 7.97097,-19.01501 L 347.597,551.939 c 3.42,-5.305 7.276,-15.305 10.232,-21.513 7.469,-15.943 15.219,-31.753 23.246,-47.423 -3.292,-4.379 -1.522,-4.361 -2.221,-9.036 -0.195,-1.305 -0.641,-1.381 -1.654,-2.129 z"
     id="path6"
     sodipodi:nodetypes="ccccccccccccccsccccsc" />
  <path
     fill="#fb5cbb"
     d="m 387.41,476.801 c 1.533,1.539 3.154,3.042 4.503,4.748 -11.104,23.588 -23.204,46.804 -34.848,70.136 l -14.088,28.201 c -2.391,4.79 -4.602,9.858 -7.274,14.488 -0.53867,1.11443 -0.3927,0.79416 -1.08044,2.33462 l 4.46917,-13.02621 c 3.96681,-9.69187 4.37527,-10.73841 8.12227,-20.44141 10.911,-19.799 20.577,-40.516 30.623,-60.78 2.312,-4.664 8.617,-15.439 9.794,-19.936 0.426,-1.63 -0.053,-4.048 -0.221,-5.724 z"
     id="path7"
     sodipodi:nodetypes="ccccccccccc" />
  <path
     fill="#FCCAE7"
     d="M265.974 519.6C269.748 517.589 269.797 511.033 273.004 509.287C272.24 511.477 270.207 514.552 270.162 516.77C270.157 517.025 270.17 517.28 270.175 517.534L269.17 520.215C269.767 521.644 269.446 522.146 268.85 523.59C262.387 539.27 252.202 553.757 246.177 569.607L247.627 571.151L244.798 576.75L242.269 581.634L240.273 586.159C239.513 586.97 238.897 587.564 238.528 588.63C236.92 588.709 235.844 589.016 234.334 589.58C235.86 590.274 238.034 590.221 239.732 590.598L239.792 590.97C236.066 591.926 232.178 592.234 228.363 592.67C234.154 580.138 240.11 567.302 246.701 555.177C248.973 550.998 251.753 547.111 253.991 542.91C258.038 535.311 261.289 526.781 265.974 519.6Z"
     id="path8" />
  <path
     fill="#F989CD"
     d="M269.17 520.215C269.767 521.644 269.446 522.146 268.85 523.59C262.387 539.27 252.202 553.757 246.177 569.607L247.627 571.151L244.798 576.75L242.269 581.634L240.273 586.159C239.513 586.97 238.897 587.564 238.528 588.63C236.92 588.709 235.844 589.016 234.334 589.58C238.323 580.615 243.335 571.927 247.593 563.052C252.332 553.174 257.162 543.393 262.092 533.611C264.292 529.246 266.336 524.172 269.17 520.215Z"
     id="path9" />
  <path
     fill="#F8AEDE"
     d="M246.177 569.607L247.627 571.151L244.798 576.75L242.269 581.634C241.731 581.216 241.588 580.913 241.265 580.328C241.361 578.261 242.361 576.584 243.261 574.769C244.132 572.978 244.919 571.166 246.177 569.607Z"
     id="path10" />
  <path
     fill="#f6219b"
     d="m 223.946,473.068 -0.606,-2.833 c 2.98434,-0.41681 16.989,-0.961 20.097,0.276 0.736,0.293 0.713,0.451 1.266,1.104 -1.339,1.124 -2.145,1.115 -3.839,1.436 l -0.491,0.891 c -1.958,0.256 -3.888,0.529 -5.863,0.592 -0.971,0.031 -1.406,0.065 -2.256,0.483 0.988,3.863 11.433,13.539 14.436,17.825 -0.431,0.638 -0.677,0.961 -1.294,1.446 l 0.593,1.199 -0.96,-0.578 c 5.279,3.024 10.428,5.91 15.407,9.43 1.891,1.336 5.592,4.743 7.611,5.387 0.491,0.156 1.03,0.01 1.546,0.015 l 0.254,-0.558 c -1.552,-2.088 -3.607,-3.897 -4.935,-6.099 -1.27,-2.107 -3.928,-3.779 -5.694,-5.514 -2.664,-2.618 -19.126,-18.692 -19.911,-21.194 0.971,0.131 1.428,0.241 2.195,0.861 1.589,1.284 2.876,3.431 4.317,4.961 l 17.744,18.616 c 2.423,2.545 5.106,6.131 7.953,8.103 l -1.884,2.944 c -4.204,-3.922 -10.625,-8.053 -15.596,-10.994 -4.004,-2.369 -20.096,-9.358 -21.383,-13.291 0.469,-1.479 0.562,-1.417 1.893,-2.253 l -0.519,-0.857 -0.634,-1.569 c -3.331,-3.02 -6.349,-6.561 -9.447,-9.829 z"
     id="path11"
     sodipodi:nodetypes="ccscccscccccccccccccccccsccccc"
     style="fill:#e50098;fill-opacity:1" />
  <path
     fill="#fccae7"
     d="m 221.96695,471.16972 -1.32398,-1.69542 c 3.36252,-0.0378 18.27016,-0.0329 20.78867,-0.0238 0.23223,8.5e-4 2.21079,1.60374 3.27136,2.16445 -4.80998,0.7944 -9.77033,1.91604 -14.708,2.575 5.376,7.073 11.749,13.485 16.911,20.684 -5.157,-3.357 -8.513,-8.592 -13.513,-11.977 -3.331,-3.02 -4.77383,-4.82428 -7.87183,-8.09228 z"
     id="path12"
     sodipodi:nodetypes="ccscccccc" />
  <path
     fill="#f6219b"
     d="m 325.52,610.26 c -1.851,-0.334 -3.88,-0.293 -5.761,-0.258 l -0.722,0.016 c 1.445,-1.726 4.059,-0.415 5.624,-2.09 -1.137,-0.123 -2.198,-0.334 -3.309,-0.601 l 0.105,-0.713 c 0.297,-0.063 1.534,-0.316 1.782,-0.419 0.281,-0.117 0.489,-0.386 0.78,-0.475 0.308,-0.096 0.645,-0.044 0.967,-0.065 l -0.08,-0.714 -0.876,0.018 c 1.332,-2.613 1.803,-5.794 2.962,-8.539 0.96,-2.273 2.763,-2.392 3.537,-4.242 1.502,-3.586 1.779,-7.574 3.047,-11.256 3.092,-8.975 11.14906,-25.6043 16.46906,-33.4983 l -3.16596,8.91542 c -2.73537,6.2885 -4.8211,11.41088 -7.5491,17.68388 -2.527,5.811 -5.592,11.529 -7.575,17.55 -1.161,4.057 -6.693,15.289 -5.896,18.656 z"
     id="path13"
     sodipodi:nodetypes="ccccccccccccccccsccc" />
  <path
     fill="#FB5CBB"
     d="M282.898 582.034C284.132 584.524 283.026 587.214 282.336 589.757C272.426 589.198 262.507 588.806 252.584 588.584C248.038 588.517 242.973 589.211 238.528 588.63C238.897 587.564 239.513 586.97 240.273 586.159C253.103 587.391 266.94 586.576 279.849 586.52C280.993 585.142 281.924 583.538 282.898 582.034Z"
     id="path14" />
  <path
     fill="#F8AEDE"
     d="M336.726 469.811C345.119 469.698 373.741 468.046 380.192 469.751L377.003 470.663L377.479 470.744C378.133 470.861 378.774 471.012 379.42 471.167C379.217 471.184 379.013 471.192 378.811 471.217C377.835 471.336 378.187 471.275 377.2 471.838C372.613 472.552 342.133 471.937 337.057 471.017L336.726 469.811Z"
     id="path15"
     style="fill:#fccae7;fill-opacity:1" />
  <path
     fill="#f989cd"
     d="m 284.06011,610.86667 c 0.119,-1.21 0.40689,-1.3482 1.14289,-2.3402 1.60708,-0.0223 2.713,0.0443 4.348,0.0513 2.983,0.012 9.53327,1.93074 12.52805,2.35189 -5.33932,0.14848 -10.96149,-0.0873 -16.34249,-0.0873 z"
     id="path16"
     sodipodi:nodetypes="cccccc" />
  <path
     fill="#e00096"
     d="m 560.665,469.495 c 10.858,-0.609 21.942,-0.167 32.823,-0.084 10.95,0.084 21.34968,-0.0407 32.88587,-0.13406 22.02543,-0.1259 42.811,-0.32089 64.06,-0.528 7.917,0 22.47613,-0.44894 29.57413,0.90206 2.801,2.402 5.353,4.94 7.892,7.615 1.397,1.288 2.851,2.547 4.13,3.951 l -15.653,30.96 c -2.901,5.78 -5.599,11.837 -8.849,17.42 -3.133,1.532 -6.272,2.803 -9.547,4 l -10.646,3.909 -4.485,1.531 -48.236,18.071 c -13.072,4.919 -26.463,10.865 -39.806,14.851 -1.877,0.736 -4.152,1.952 -6.164,2.042 l -3.401,2.065 c -1.494,3.014 -3.759,6.544 -4.613,9.755 8.606,0.171 17.215,0.233 25.823,0.185 4.605,0 9.752,0.386 14.281,-0.366 0.669,-3.082 2.683,-6.26 4.205,-8.992 0.425,-0.204 0.847,-0.415 1.279,-0.604 11.751,-5.124 24.353,-9.086 36.39,-13.58 9.764,-3.645 20.12,-8.475 30.17,-10.985 1.579,-0.394 1.922,-0.296 3.396,0.257 -4.856,10.836 -10.263,21.424 -15.517,32.071 -2.749,5.571 -5.194,11.61 -8.466,16.866 -1.494,3.063 -2.882,6.292 -4.611,9.223 l -0.616,0.418 c -6.105,1.035 -13.081,0.46 -19.281,0.435 -7.708,-0.031 -15.522,0.193 -23.217,-0.163 -19.784,0.44 -39.663,-0.038 -59.456,-0.118 -15.432,-0.062 -30.862,0.333 -46.293,0.212 -1.827,-0.136 -3.643,0.152 -5.47,0.103 -1.367,-0.036 -1.971,-0.175 -2.894,-1.163 l 0.605,-2.017 c 2.629,-7.676 7.597,-15.594 11.391,-22.838 1.341,-4.868 14.042,-28.849 17.286,-34.096 18.134,-7.456 36.952,-13.826 55.329,-20.712 20.277,-7.597 40.553,-15.825 61.044,-22.781 2.112,-0.758 4.253,-1.327 5.293,-3.474 l 4.683,-9.605 -39.585,-0.061 c -1.717,3.227 -3.392,6.481 -5.282,9.61 -5.761,2.887 -12.211,4.965 -18.316,7.006 -4.706,1.847 -9.404,3.851 -14.206,5.428 l -8.64,3.34 c -3.347,1.214 -7.989,3.658 -11.424,4.009 -3.28,1.391 -14.372,6.548 -17.236,5.721 -0.03,-0.805 -0.122,-0.928 0.273,-1.67 1.452,-5.481 5.547,-11.785 8.035,-17.007 3.679,-7.112 7.178,-14.331 10.763,-21.492 0.232,-0.79 0.721,-1.946 1.206,-2.602 0.965,-1.306 2.295,-1.415 3.777,-1.611 -2.841,-2.627 -5.297,-5.546 -7.804,-8.488 -2.409,-1.214 -5.009,-4.802 -6.88,-6.785 z"
     id="path17"
     sodipodi:nodetypes="ccccccccccccccccccccccccscccscccccccccccccccccccccccccc" />
  <path
     fill="#fccae7"
     d="m 626.441,469.814 c 21.71777,0.28432 42.811,-0.526 64.06,-0.528 7.917,0 22.409,-0.986 29.507,0.365 2.801,2.402 5.353,4.94 7.892,7.615 1.397,1.288 2.851,2.547 4.13,3.951 l -15.653,30.96 c -2.901,5.78 -5.599,11.837 -8.849,17.42 -3.133,1.532 -6.272,2.803 -9.547,4 l -10.646,3.909 -4.485,1.531 -48.236,18.071 -0.663,-0.813 0.582,-0.53 c -1.434,-0.112 -2.034,-0.321 -3.204,-1.188 -0.578,-0.428 -1.11,-0.865 -1.745,-1.208 -1.855,-1.002 -4.407,0.404 -6.361,1.005 l 0.465,-0.796 -0.548,0.457 c 7.151,-4.429 16.671,-6.789 24.508,-9.829 11.17,-4.334 22.833,-9.893 34.335,-13.199 1.311,-0.377 2.269,-0.392 3.611,-0.248 5.441,-2.309 10.916,-4.552 16.222,-7.161 4.637,-13.476 13.231,-27.836 19.767,-40.68 -1.182,-1.296 -2.331,-2.412 -2.958,-4.088 0.211,-1.119 0.411,-2.21 0.501,-3.346 0.093,-1.177 0.038,-0.916 -0.657,-1.733 -5.329,-1.016 -11.242,-0.744 -16.663,-0.916 l -33.463,-0.929 c -7.162,0.214 -34.55922,-0.96281 -41.902,-2.092 z"
     id="path18"
     sodipodi:nodetypes="ccccccccccccccscccccccccccccc" />
  <path
     fill="#F6219B"
     d="M634.533 555.765C633.099 555.653 632.499 555.444 631.329 554.577C630.751 554.149 630.219 553.712 629.584 553.369C627.729 552.367 625.177 553.773 623.223 554.374L623.688 553.578L623.14 554.035C630.291 549.606 639.811 547.246 647.648 544.206C658.818 539.872 670.481 534.313 681.983 531.007C683.294 530.63 684.252 530.615 685.594 530.759C681.909 532.501 677.579 533.992 674.143 536.109C668.888 538.066 640.773 549.244 638.121 551.881C642.785 551.862 668.16 541.778 673.498 539.327C675.286 539.089 677.033 538.243 678.718 537.604L685.042 535.287C686.16 535.958 686.673 536.377 687.335 537.506L682.85 539.037L634.614 557.108L633.951 556.295L634.533 555.765Z"
     id="path19" />
  <path
     fill="#F6219B"
     d="M727.9 477.266C729.297 478.554 730.751 479.813 732.03 481.217L716.377 512.177C713.476 517.957 710.778 524.014 707.528 529.597C704.395 531.129 701.256 532.4 697.981 533.597L698.444 530.276C700.939 529.601 703.194 528.507 705.524 527.413C709.987 519.961 727.987 487.691 728.989 481.55C728.515 480.409 728.047 479.333 727.95 478.087C727.929 477.814 727.917 477.54 727.9 477.266Z"
     id="path20" />
  <path
     fill="#fb5cbb"
     d="m 626.441,469.814 c 21.205,0.16557 42.811,-0.526 64.06,-0.528 7.917,0 22.409,-0.986 29.507,0.365 l -55.294,0.252 c -8.028,0.087 -16.033,0.765 -24.066,0.758 8.146,0.315 20.125,-0.452 27.695,1.245 -7.162,0.214 -34.36086,-0.68676 -41.902,-2.092 z"
     id="path21"
     sodipodi:nodetypes="ccccccc" />
  <path
     fill="#FB5CBB"
     d="M685.042 535.287C689.382 533.406 694.003 531.927 698.444 530.276L697.981 533.597L687.335 537.506C686.673 536.377 686.16 535.958 685.042 535.287Z"
     id="path22" />
  <path
     fill="#F6219B"
     d="M617.051 495.452C617.83 492.854 619.362 488.358 622.12 487.243C623.678 486.613 624.7 487.335 626.103 487.915C626.096 488.884 625.944 490.091 626.119 491.03C638.785 492.768 652.139 491.908 664.919 491.858L667.528 492.486C668.192 494.136 667.814 495.811 667.102 497.451C666.237 499.442 664.305 502.907 662.364 503.805L661.301 503.702L665.984 494.097L626.399 494.036C624.682 497.263 623.007 500.517 621.117 503.646C615.356 506.533 608.906 508.611 602.801 510.652C598.095 512.499 593.397 514.503 588.595 516.08C587.965 515.405 587.193 514.85 586.476 514.267C587.591 514.106 588.152 513.981 589.043 513.277C589.182 512.182 589.32 511.411 589.932 510.49C590.098 510.24 590.272 509.995 590.442 509.747C591.332 508.072 593.999 506.908 594.584 505.204C595.184 503.456 593.351 501.912 594.329 499.889C597.631 500.416 600.293 505.133 603.523 505.516C606.407 505.859 611.388 504.221 614.474 503.817C615.342 502.245 614.592 500.993 615.057 499.1C615.756 497.905 616.393 496.67 617.051 495.452Z"
     id="path23"
     style="fill:#e00096;fill-opacity:1" />
  <path
     fill="#FCCAE7"
     d="M617.051 495.452C619.089 494.215 622.289 491.632 624.58 491.224C622.676 495.094 620.805 499.904 617.746 503.017L616.746 502.839C615.347 501.708 615.454 500.819 615.057 499.1C615.756 497.905 616.393 496.67 617.051 495.452Z"
     id="path24" />
  <path
     fill="#FB5CBB"
     d="M590.442 509.747C594.567 510.876 598.707 509.888 602.801 510.652C598.095 512.499 593.397 514.503 588.595 516.08C587.965 515.405 587.193 514.85 586.476 514.267C587.591 514.106 588.152 513.981 589.043 513.277C589.182 512.182 589.32 511.411 589.932 510.49C590.098 510.24 590.272 509.995 590.442 509.747Z"
     id="path25" />
  <path
     fill="#FCCAE7"
     d="M624.939 576.648C625.364 576.444 625.786 576.233 626.218 576.044C637.969 570.92 650.571 566.958 662.608 562.464C672.372 558.819 682.728 553.989 692.778 551.479C694.357 551.085 694.7 551.183 696.174 551.736C688.299 556.351 676.859 559.385 668.133 562.582C653.867 567.762 639.763 573.378 625.84 579.419C624.248 582.373 622.828 585.212 622.628 588.635C610.267 588.945 597.818 588.581 585.452 588.446C583.22 588.108 580.992 588.161 578.745 587.736C578.015 587.598 578.337 587.769 577.841 587.039C578.73 586.389 579.585 586.142 580.63 585.821C589.236 585.992 597.845 586.054 606.453 586.006C611.058 586.006 616.205 586.392 620.734 585.64C621.403 582.558 623.417 579.38 624.939 576.648Z"
     id="path26" />
  <path
     fill="#FCCAE7"
     d="M683.593 567.476C686.17 561.818 688.103 557.174 693.105 553.261C689.013 562.398 684.674 571.422 680.092 580.323C676.992 586.724 673.013 593.504 672.191 600.673C670.697 603.736 669.309 606.965 667.58 609.896C666.15 609.553 664.679 609.401 663.628 608.292L664.284 607.14C665.982 605.871 666.518 603.875 667.281 601.97C669.457 595.9 671.065 589.116 674.723 583.761L673.69 583.471C673.661 582.346 673.781 582.63 673.439 581.776C673.373 581.611 673.292 581.452 673.219 581.29C674.007 578.271 676.126 574.516 677.796 571.858C679.589 569.004 680.314 568.23 683.593 567.476Z"
     id="path27" />
  <path
     fill="#EA008D"
     d="M673.219 581.29C674.007 578.271 676.126 574.516 677.796 571.858C679.589 569.004 680.314 568.23 683.593 567.476L677.268 580.061C676.432 581.295 675.623 582.573 674.723 583.761L673.69 583.471C673.661 582.346 673.781 582.63 673.439 581.776C673.373 581.611 673.292 581.452 673.219 581.29Z"
     id="path28" />
  <path
     fill="#FCCAE7"
     d="M568.513 593.531C570.564 587.45 573.202 580.326 576.232 574.676C577.337 572.615 578.493 570.547 580.841 569.83C582.638 570.257 583.046 570.874 584.355 572.132L584.643 572.289C586.194 572.644 587.52 572.788 588.644 574.001L585.243 576.066C583.749 579.08 581.484 582.61 580.63 585.821C579.585 586.142 578.73 586.389 577.841 587.039C578.337 587.769 578.015 587.598 578.745 587.736C580.992 588.161 583.22 588.108 585.452 588.446C583.13 588.509 580.811 588.637 578.496 588.829C577.981 589.602 578.102 589.248 577.966 589.816C578.9 590.007 579.599 590.291 580.448 590.723L580.027 591.412C576.453 592.713 572.28 592.999 568.513 593.531Z"
     id="path29" />
  <path
     fill="#FB5CBB"
     d="M584.355 572.132L584.643 572.289C586.194 572.644 587.52 572.788 588.644 574.001L585.243 576.066C583.749 579.08 581.484 582.61 580.63 585.821C579.585 586.142 578.73 586.389 577.841 587.039C578.337 587.769 578.015 587.598 578.745 587.736C580.992 588.161 583.22 588.108 585.452 588.446C583.13 588.509 580.811 588.637 578.496 588.829C577.981 589.602 578.102 589.248 577.966 589.816C576.852 590.052 576.822 590.158 575.659 589.799C578.804 584.459 580.151 578.155 583.795 573.089L584.355 572.132Z"
     id="path30" />
  <path
     fill="#fccae7"
     d="m 560.37262,469.43564 c 7.33134,-0.29333 17.0786,-0.1 21.19749,-0.0285 l 2.84733,2.17656 c -5.06544,0.74999 -8.84344,2.00133 -13.47344,2.39433 5.302,7.386 11.289,14.278 16.951,21.387 -4.83,-3.196 -8.667,-6.314 -12.546,-10.597 -2.841,-2.627 -5.297,-5.546 -7.804,-8.488 -1.64045,-0.91249 -3.63179,-3.35155 -7.17238,-6.84436 z"
     id="path31"
     sodipodi:nodetypes="cccccccc" />
  <path
     fill="#FB5CBB"
     d="M624.466 610.586C622.31 610.236 620.109 610.074 617.935 609.847C618.664 609.16 622.575 609.405 623.71 609.388L623.689 608.976C622.394 609.042 621.217 608.193 620.054 607.634L620.047 607.335C622.236 607.79 626.798 608.135 628.827 606.984C629.026 606.872 629.215 606.744 629.409 606.624C631.874 606.808 634.273 607.098 636.711 607.506L642.068 607.499C648.567 607.863 655.088 607.051 661.598 607.032L664.284 607.14L663.628 608.292C664.679 609.401 666.15 609.553 667.58 609.896L666.964 610.314C660.859 611.349 653.883 610.774 647.683 610.749C639.975 610.718 632.161 610.942 624.466 610.586Z"
     id="path32" />
  <path
     fill="#F989CD"
     d="M661.598 607.032L664.284 607.14L663.628 608.292C664.679 609.401 666.15 609.553 667.58 609.896L666.964 610.314C665.687 610.118 664.343 610.094 663.052 609.997C654.786 610.168 646.518 610.204 638.251 610.105C639.115 609.487 639.443 609.545 639.679 608.467L636.711 607.506L642.068 607.499C648.567 607.863 655.088 607.051 661.598 607.032Z"
     id="path33" />
  <path
     fill="#F8AEDE"
     d="M661.598 607.032L664.284 607.14L663.628 608.292C664.679 609.401 666.15 609.553 667.58 609.896L666.964 610.314C665.687 610.118 664.343 610.094 663.052 609.997C660.621 609.709 658.25 609.7 655.81 609.275L655.542 608.778C657.465 607.736 659.478 607.435 661.598 607.032Z"
     id="path34" />
  <path
     fill="#F8AEDE"
     d="M629.409 606.624C631.874 606.808 634.273 607.098 636.711 607.506L639.679 608.467C639.443 609.545 639.115 609.487 638.251 610.105C635.841 610.204 633.363 610.508 631.026 609.82C629.7 608.624 629.773 608.309 629.409 606.624Z"
     id="path35" />
  <path
     fill="#F6219B"
     d="M673.219 581.29C673.292 581.452 673.373 581.611 673.439 581.776C673.781 582.63 673.661 582.346 673.69 583.471L674.723 583.761C671.065 589.116 669.457 595.9 667.281 601.97C666.518 603.875 665.982 605.871 664.284 607.14L661.598 607.032C655.088 607.051 648.567 607.863 642.068 607.499C643.884 606.965 645.83 606.991 647.692 606.631C652.877 605.629 658.548 604.386 663.496 602.578C666.449 595.354 669.693 588.252 673.219 581.29Z"
     id="path36" />
  <path
     fill="#F8AEDE"
     d="M570.366 488.981C571.61 493.228 563.935 507.434 562.07 512.476C561.002 515.212 560.044 518.549 558.497 521.012L557.615 519.848C555.895 520.617 555.253 522.505 554.434 524.144C553.634 525.747 553.05 526.477 551.568 527.48C553.02 521.999 557.115 515.695 559.603 510.473C563.282 503.361 566.781 496.142 570.366 488.981Z"
     id="path37" />
  <path
     fill="#FCCAE7"
     d="M558.497 521.012L558.674 522C561.802 522.705 569.004 519.507 572.209 518.505L572.949 519.442C571.651 520.583 568.908 521.902 568.531 523.429C565.251 524.82 554.159 529.977 551.295 529.15C551.265 528.345 551.173 528.222 551.568 527.48C553.05 526.477 553.634 525.747 554.434 524.144C555.253 522.505 555.895 520.617 557.615 519.848L558.497 521.012Z"
     id="path38" />
  <path
     fill="#EA008D"
     d="M588.324 571.72C592.706 568.334 600.512 568.102 603.57 565.691C603.783 565.523 603.986 565.342 604.194 565.168L604.326 565.467C603.043 566.769 601.799 567.433 600.162 568.242L599.517 568.556L599.805 568.857C603.107 568.403 607.074 566.321 610.259 565.132L633.951 556.295L634.614 557.108C621.542 562.027 608.151 567.973 594.808 571.959C592.931 572.695 590.656 573.911 588.644 574.001C587.52 572.788 586.194 572.644 584.643 572.289C585.951 572.218 587.06 572.025 588.324 571.72Z"
     id="path39" />
  <path
     fill="#F8AEDE"
     d="M510.958 607.603C511.833 606.988 512.459 606.582 513.036 605.656C514.037 604.05 514.507 602.352 516.278 601.563L517.021 602.754L516.061 605.15C516.498 606.117 516.533 606.445 517.611 606.826C519.336 607.436 521.751 607.345 523.589 607.469L524.837 608.903C524.024 609.993 521.571 609.879 520.19 610.25L518.717 610.68C516.89 610.544 515.074 610.832 513.247 610.783C511.88 610.747 511.276 610.608 510.353 609.62L510.958 607.603Z"
     id="path40" />
  <path
     fill="#F989CD"
     d="M522.349 584.765L523.232 585.859C522.29 591.542 519.268 597.426 517.021 602.754L516.278 601.563C514.507 602.352 514.037 604.05 513.036 605.656C512.459 606.582 511.833 606.988 510.958 607.603C513.587 599.927 518.555 592.009 522.349 584.765Z"
     id="path41" />
  <path
     fill="#F8AEDE"
     d="M572.209 518.505C574.1 517.502 576.539 517.028 578.599 516.405L579.856 517.504C579.897 518.117 579.999 518.81 579.955 519.42C576.608 520.634 571.966 523.078 568.531 523.429C568.908 521.902 571.651 520.583 572.949 519.442L572.209 518.505Z"
     id="path42" />
  <path
     fill="#F8AEDE"
     d="M523.589 607.469C529.072 607.882 534.404 608.394 539.725 609.834C533.265 610.576 526.682 610.413 520.19 610.25C521.571 609.879 524.024 609.993 524.837 608.903L523.589 607.469Z"
     id="path43" />
  <path
     fill="#F989CD"
     d="M578.599 516.405C581.184 515.605 583.86 514.972 586.476 514.267C587.193 514.85 587.965 515.405 588.595 516.08L579.955 519.42C579.999 518.81 579.897 518.117 579.856 517.504L578.599 516.405Z"
     id="path44" />
  <path
     fill="#e00096"
     d="m 408.947,469.46761 c 9.89263,0.0621 18.77814,0.13323 28.32929,0.15981 17.979,-0.078 35.80728,-0.16512 53.95171,-0.17242 4.226,-0.045 8.474,-0.178 12.698,-0.021 13.73,-0.303 27.968,-0.583 41.683,0.04 3.152,3.05 6.255,6.109 9.224,9.338 1.179,1.345 1.905,1.747 1.865,3.672 -0.058,2.888 -3.044,7.142 -4.471,9.734 l -18.191,36.387 c -3.191,6.377 -6.159,13.078 -9.696,19.261 -8.383,17.203 -16.529,35.254 -26.167,51.774 -1.204,2.723 -3.214,8.958 -5.717,10.45 -0.536,0.32 -1.297,0.393 -1.904,0.473 -9.913,-0.035 -20.055,0.451 -29.932,-0.007 -8.534,0.306 -17.217,0.187 -25.749,-0.089 2.922,-6.545 6.281,-12.901 9.527,-19.291 1.888,-6.626 6.767,-13.453 9.791,-19.716 12.706,-25.921 25.711,-51.696 39.01,-77.319 -10.925,-0.27 -21.914,-0.084 -32.845,-0.106 l -0.341,0.063 c -8.479,17.297 -17.088,34.529 -25.828,51.696 l -13.201,26.649 c -2.106,4.233 -4.035,9.012 -6.573,12.981 l -1.611,3.314 -2.746,5.49 c -1.232,2.578 -6.31,15.007 -8.537,15.765 -0.253,0.087 -0.523,0.113 -0.784,0.169 l -0.3,0.11 c -7.428,0.717 -15.182,0.338 -22.649,0.387 -6.811,0.046 -14.018,0.539 -20.794,-0.046 -4.518,0.103 -9.01,-0.048 -13.524,-0.211 2.355,-6.005 5.5,-11.8 8.366,-17.576 3.574,-7.874 52.658,-105.291 55.245,-107.515 1.052,0.079 1.954,0.193 2.994,-0.038 0.189,-0.042 0.373,-0.107 0.56,-0.161 -5.407,-4.78 -10.374,-10.384 -15.457,-15.528 4.575,-0.202 9.193,-0.0764 13.773,-0.11639 z"
     id="path45"
     sodipodi:nodetypes="cccccccccccccccccccccccccccccccccsccc" />
  <path
     fill="#E00096"
     d="M410.631 485.112L411.888 485.92L410.991 486.088C409.788 486.306 408.599 486.392 407.381 486.48C408.178 489.603 410.57 490.802 413.172 492.343C418.923 495.747 440.076 506.596 442.772 512.138C438.741 515.723 428.44 537.489 426.526 543.237C421.302 556.461 413.951 568.803 408.696 582.101C398.865 592.03 405.671 602.288 388.265 608.402C391.58 608.076 394.896 607.703 398.224 607.539C396.274 608.251 394.221 608.305 392.43 609.201C392.188 609.322 391.23 609.682 390.94 609.794C394.091 610.15 397.341 609.713 400.433 610.272C393.005 610.989 385.251 610.61 377.784 610.659C370.973 610.705 363.766 611.198 356.99 610.613C352.472 610.716 347.98 610.565 343.466 610.402C345.821 604.397 348.966 598.602 351.832 592.826C355.406 584.952 404.49 487.535 407.077 485.311C408.129 485.39 409.031 485.504 410.071 485.273C410.26 485.231 410.444 485.166 410.631 485.112Z"
     id="path46" />
  <path
     fill="#F8AEDE"
     d="M351.832 592.826L353.544 592.12C354.536 594.811 350.303 603.247 349.232 606.175C358.891 607.245 369.457 607.039 378.768 609.853C371.581 610.385 364.07 609.688 356.99 610.613C352.472 610.716 347.98 610.565 343.466 610.402C345.821 604.397 348.966 598.602 351.832 592.826Z"
     id="path47" />
  <path
     fill="#F6219B"
     d="m 395.174,469.584 c 4.575,-0.202 9.193,-0.0467 13.773,-0.0867 3.29,0.273 7.538,-0.34832 10.591,0.62668 0.378,1.156 0.667,1.286 0.215,2.467 -1.942,0.31 -3.864,0.498 -5.825,0.639 l -0.5,0.812 c -1.889,0.275 -3.743,0.499 -5.648,0.617 l -0.493,0.424 c 0.659,4.088 16.55,16.523 15.364,19.816 l -2.229,0.505 c 2.526,2.122 5.606,3.661 8.596,5.028 5.606,2.563 9.508,7.39 14.732,10.503 -2.093,-3.811 -7.01,-7.679 -10.008,-10.937 -1.68,-1.827 -16.799,-18.82 -17.1,-19.902 -0.083,-0.298 0.159,-0.596 0.239,-0.895 2.228,0.533 21.806,26.264 27.486,30.081 0.232,0.155 0.457,0.319 0.689,0.474 0.139,0.093 0.282,0.18 0.424,0.27 l 1.577,-3.177 c 2.828,-7.062 6.696,-12.564 8.414,-20.178 3.144,0.515 6.764,0.304 9.674,1.626 -1.31,2.018 -5.615,1.134 -7.052,3.521 l 2.347,1.031 -0.086,1.186 -0.341,0.063 c -8.479,17.297 -17.088,34.529 -25.828,51.696 l -13.201,26.649 c -2.106,4.233 -4.035,9.012 -6.573,12.981 l -1.611,3.314 -2.746,5.49 c -1.232,2.578 -6.31,15.007 -8.537,15.765 -0.253,0.087 -0.523,0.113 -0.784,0.169 l -0.3,0.11 c -3.092,-0.559 -6.342,-0.122 -9.493,-0.478 0.29,-0.112 1.248,-0.472 1.49,-0.593 1.791,-0.896 3.844,-0.95 5.794,-1.662 -3.328,0.164 -6.644,0.537 -9.959,0.863 17.406,-6.114 10.6,-16.372 20.431,-26.301 5.255,-13.298 12.606,-25.64 17.83,-38.864 1.914,-5.748 12.215,-27.514 16.246,-31.099 -2.696,-5.542 -23.849,-16.391 -29.6,-19.795 -2.602,-1.541 -4.994,-2.74 -5.791,-5.863 1.218,-0.088 2.407,-0.174 3.61,-0.392 l 0.897,-0.168 -1.257,-0.808 c -5.407,-4.78 -10.374,-10.384 -15.457,-15.528 z"
     id="path48"
     style="fill:#e00096;fill-opacity:1"
     sodipodi:nodetypes="ccccccccccsccsccsccccccccccccccccccccccccccccc" />
  <path
     fill="#f8aede"
     d="m 395.174,469.584 c 4.575,-0.202 9.2029,-0.0764 13.7829,-0.11639 3.43305,0.0238 5.49026,0.0448 8.6764,0.0545 0.59811,0.56997 1.76026,1.57317 3.04357,2.54098 -1.942,0.31 -4.39718,0.63524 -6.74887,0.92275 -2.934,0.251 -5.884,0.69118 -8.8,1.10718 5.411,7.576 12.873,13.942 17.835,21.716 -6.00329,-5.08589 -9.1089,-7.71046 -12.332,-10.697 -5.407,-4.78 -10.374,-10.384 -15.457,-15.528 z"
     id="path49"
     sodipodi:nodetypes="cccccccccc"
     style="fill:#fccae7;fill-opacity:1" />
  <path
     fill="#FCCAE7"
     d="M426.526 543.237L428.815 543.239L429.276 543.915C428.779 546.38 427.139 548.165 426.311 550.488C420.704 560.861 414.851 571.503 410.035 582.255L408.696 582.101C413.951 568.803 421.302 556.461 426.526 543.237Z"
     id="path50" />
  <path
     fill="#fb5cbb"
     d="m 448.07,514.582 c 3.77628,-8.10588 7.07317,-13.8127 10.946,-21.161 l 0.997,0.677 c -8.479,17.297 -17.088,34.529 -25.828,51.696 l -1.241,-0.511 c 5.195,-12.566 4.24739,-9.14502 10.40446,-21.87791 0.75663,-1.08305 1.66246,-2.81624 2.23054,-3.84309 z"
     id="path51"
     sodipodi:nodetypes="cccccccc" />
  <path
     fill="#F8AEDE"
     d="M432.944 545.283L434.185 545.794L420.984 572.443C418.878 576.676 416.949 581.455 414.411 585.424L412.8 588.738C412.39 587.561 411.854 586.818 411.081 585.846L412.323 583.227C413.824 579.681 416.523 577.701 418.306 574.442C422.436 566.895 426.1 558.965 429.744 551.168L432.944 545.283Z"
     id="path52" />
  <path
     fill="#F8AEDE"
     d="M412.323 583.227L413.713 583.65L414.411 585.424L412.8 588.738C412.39 587.561 411.854 586.818 411.081 585.846L412.323 583.227Z"
     id="path53" />
  <path
     fill="#FCCAE7"
     d="M408.328 591.542L410.054 594.228C408.822 596.806 403.744 609.235 401.517 609.993C401.264 610.08 400.994 610.106 400.733 610.162C400.615 609.843 400.45 609.538 400.379 609.206C399.767 606.322 406.664 594.585 408.328 591.542Z"
     id="path54" />
  <path
     fill="#F8AEDE"
     d="M411.081 585.846C411.854 586.818 412.39 587.561 412.8 588.738L410.054 594.228L408.328 591.542C408.753 589.634 410.162 587.592 411.081 585.846Z"
     id="path55" />
  <defs
     id="defs56">
    <linearGradient
       id="gradient_1"
       gradientUnits="userSpaceOnUse"
       x1="480.94843"
       y1="507.18823"
       x2="532.53571"
       y2="529.35175">
      <stop
         offset="0"
         stop-color="#EE8EC7"
         id="stop55" />
      <stop
         offset="1"
         stop-color="#FFD0EB"
         id="stop56" />
    </linearGradient>
  </defs>
  <path
     fill="url(#gradient_1)"
     d="M503.926 469.434C517.656 469.131 531.894 468.851 545.609 469.474C548.761 472.524 551.864 475.583 554.833 478.812C556.012 480.157 556.738 480.559 556.698 482.484C556.64 485.372 553.654 489.626 552.227 492.218L534.036 528.605C530.845 534.982 527.877 541.683 524.34 547.866C515.957 565.069 507.811 583.12 498.173 599.64C498.443 596.843 499.34 594.106 500.068 591.398L498.627 592.355L498.09 590.231C499.697 585.636 501.528 581.094 503.848 576.812C505.323 570.912 508.994 565.984 510.01 559.809C511.27 553.791 516.3 545.54 519.035 539.841C528.117 520.84 537.496 501.981 547.168 483.273C546 482.012 545.036 480.594 544.032 479.201C544.78 477.24 545.038 474.799 544.623 472.74C540.934 470.886 528.52 471.92 523.974 471.915C514.557 471.46 505.097 472.383 495.724 471.525L496.367 470.489C498.178 469.461 501.277 470.074 503.465 469.551C503.619 469.514 503.772 469.473 503.926 469.434Z"
     id="path56" />
  <path
     fill="#FB5CBB"
     d="M554.833 478.812C556.012 480.157 556.738 480.559 556.698 482.484C556.64 485.372 553.654 489.626 552.227 492.218L534.036 528.605C530.845 534.982 527.877 541.683 524.34 547.866L521.882 547.838C531.742 527.373 542.175 507.084 552.233 486.703C553.309 484.704 553.87 483.313 553.685 480.992C553.661 480.692 553.629 480.393 553.601 480.094L554.833 478.812Z"
     id="path57" />
  <path
     fill="#F6219B"
     d="M521.882 547.838L524.34 547.866C515.957 565.069 507.811 583.12 498.173 599.64C498.443 596.843 499.34 594.106 500.068 591.398L498.627 592.355L498.09 590.231C499.697 585.636 501.528 581.094 503.848 576.812C503.798 578.115 503.828 579.33 503.446 580.586L503.836 580.039C504.662 578.897 505.246 577.865 506.589 577.297C508.651 574.577 510.192 570.591 511.754 567.519C515.076 560.931 518.452 554.37 521.882 547.838Z"
     id="path58" />
  <path
     fill="#FCCAE7"
     d="M503.848 576.812C503.798 578.115 503.828 579.33 503.446 580.586L503.836 580.039C504.662 578.897 505.246 577.865 506.589 577.297C504.367 581.919 501.688 586.533 500.068 591.398L498.627 592.355L498.09 590.231C499.697 585.636 501.528 581.094 503.848 576.812Z"
     id="path59" />
  <path
     fill="#EA008D"
     d="M490.552 610.563C487.699 609.636 483.823 609.925 480.809 609.838C482.066 609.345 483.168 609.845 484.533 609.323L483.323 607.493C483.899 606.145 485.271 605.487 486.471 604.736C491.551 601.557 503.178 567.579 510.01 559.809C508.994 565.984 505.323 570.912 503.848 576.812C501.528 581.094 499.697 585.636 498.09 590.231L498.627 592.355L500.068 591.398C499.34 594.106 498.443 596.843 498.173 599.64C496.969 602.363 494.959 608.598 492.456 610.09C491.92 610.41 491.159 610.483 490.552 610.563Z"
     id="path60" />
  <path
     fill="#F8AEDE"
     d="M498.09 590.231L498.627 592.355L500.068 591.398C499.34 594.106 498.443 596.843 498.173 599.64C496.969 602.363 494.959 608.598 492.456 610.09C491.92 610.41 491.159 610.483 490.552 610.563C489.867 607.681 496.733 594.264 498.09 590.231Z"
     id="path61" />
  <path
     fill="#F8AEDE"
     d="M444.398 591.176L445.251 592.007C445.272 596.479 442.229 601.896 440.895 606.203C450.736 608.163 460.765 607.237 470.592 609.836C467.35 610.025 463.796 609.953 460.62 610.556C452.086 610.862 443.403 610.743 434.871 610.467C437.793 603.922 441.152 597.566 444.398 591.176Z"
     id="path62" />
  <path
     fill="#fb5cbb"
     d="m 491.228,469.455 c 4.226,-0.045 8.43873,-0.0722 12.698,-0.021 -0.154,0.039 -0.307,0.08 -0.461,0.117 -2.188,0.523 -5.287,-0.09 -7.098,0.938 l -0.643,1.036 c -4.013,-0.028 -8.424,0.254 -12.378,-0.362 -0.89262,-0.49575 -1.38017,-0.98575 -2.27023,-1.69203 3.37415,-0.037 6.75348,0.0119 10.15223,-0.016 z"
     id="path63"
     sodipodi:nodetypes="ccccccccc" />
  <path
     fill="#EA008D"
     d="m 736.038,469.566 c 8.98475,-0.15849 17.997,0.0116 26.893,0.038 8.398,0.178 16.811,-0.003 25.21,-0.069 25.743,-0.263 51.488,-0.221 77.23,0.126 14.549,0.055 28.90765,0.0287 43.684,0.053 l 0.885,0.676 c -2.70773,5.55717 -9.1281,18.36174 -11.416,22.96 -13.154,5.848 -27.185,10.394 -40.684,15.433 -8.35698,2.98304 -16.05958,6.21609 -28.8277,10.77315 2.37797,-5.98909 7.8687,-19.18415 9.1617,-24.99415 -0.98,-0.699 -0.461,-0.484 -1.53,-0.708 -12.099,0.37 -24.206,0 -36.305,0.213 -1.131,2.285 -2.296,4.559 -3.367,6.873 -1.6,3.237 -3.068,6.886 -5.05,9.887 -2.639,5.452 -5.703,10.995 -7.884,16.632 9.272,0.064 18.561,0.014 27.829,0.279 4.143,-0.045 8.286,-0.034 12.429,0.036 0.608,1.486 0.263,2.129 -0.388,3.576 -0.954,2.122 -2.15,4.187 -3.242,6.243 l -7.134,14.404 c -11.105,1.835 -30.655,0.626 -42.519,0.622 -5.346,11.011 -10.47,22.504 -16.481,33.157 12.684,0.608 25.572,0.196 38.278,0.188 1.47,-3.223 2.885,-6.356 4.849,-9.317 5.114,-2.604 11.074,-4.461 16.537,-6.206 3.64,-1.969 8.101,-3.23 12.003,-4.679 7.441,-2.803 14.912,-5.526 22.411,-8.17 5.597,-2.394 11.496,-4.667 17.359,-6.304 1.382,-0.262 1.829,-0.464 3.127,0.015 0.125,2.535 -24.752,52.184 -28.493,58.637 l -0.696,0.358 c -5.989,1.053 -12.914,0.447 -19.013,0.432 l -35.411,-0.183 c -27.662,0.688 -55.651,0.38 -83.329,0.023 -6.042,0.116 -12.819,0.714 -18.75,-0.375 -0.038,-0.579 0.096,-1.146 0.182,-1.719 7.891,-17.056 16.775,-33.771 25.2,-50.574 9.693,-19.329 19.077,-38.9 29.221,-57.993 0.58,-1.728 1.532,-3.473 2.304,-5.136 1.911,-4.112 3.502,-8.742 7.986,-10.384 -3.591,-3.778 -7.591,-7.524 -10.92,-11.513 -0.999,-1.195 -1.432,-1.747 -1.339,-3.31 z"
     id="path64"
     style="fill:#e00096;fill-opacity:1"
     sodipodi:nodetypes="cccccccccccccccccccccccccccccccccccccccccc" />
  <path
     fill="#fccae7"
     d="m 789.599,503.032 c 2.186,-5.491 5.609,-10.429 7.705,-16.041 2.395,0.889 4.594,1.877 6.855,3.06 -0.214,0.099 -0.424,0.208 -0.642,0.298 -0.808,0.331 -1.246,0.394 -2.066,0.512 -1.542,0.222 -2.811,0.795 -3.718,2.11 -1.004,1.456 -1.718,3.607 -2.45,5.234 l 1.689,2.735 c -1.6,3.237 -3.068,6.886 -5.05,9.887 -2.639,5.452 -5.703,10.995 -7.884,16.632 9.272,0.064 18.561,0.014 27.829,0.279 4.143,-0.045 8.286,-0.034 12.429,0.036 0.608,1.486 0.263,2.129 -0.388,3.576 -0.954,2.122 -2.15,4.187 -3.242,6.243 l -7.134,14.404 c -11.105,1.835 -30.655,0.626 -42.519,0.622 -5.346,11.011 -10.47,22.504 -16.481,33.157 -0.922,0.299 -1.865,0.567 -2.761,0.934 l 0.287,1.402 c -0.529,0.309 -0.872,0.627 -1.313,1.045 1.547,1.293 5.95,1.177 8.132,1.391 -5.592,1.561 -11.205,2.496 -16.924,3.449 6.481,-13.625 13.798,-26.852 20.229,-40.508 0.867,-3.076 2.67,-5.614 4.605,-8.092 8.683,-0.179 34.811,0.762 41.333,-1.185 1.438,-0.429 1.457,-1.073 2.128,-2.342 l 3.11,-6.429 c -13.859,0.558 -27.995,-0.254 -41.901,-0.154 2.232,-5.245 4.481,-10.994 7.453,-15.853 1.969,-3.219 4.717,-5.869 6.786,-9.018 1.487,-2.263 2.616,-4.976 3.903,-7.384 z"
     id="path65"
     sodipodi:nodetypes="ccccscccccccccccccccccccccccssc" />
  <path
     fill="#FB5CBB"
     d="M788.754 512.145L791.922 510.827C789.283 516.279 786.219 521.822 784.038 527.459C793.31 527.523 802.599 527.473 811.867 527.738C816.01 527.693 820.153 527.704 824.296 527.774L819.112 531.28C815.261 532.307 786.276 531.19 778.967 531.45C782.158 525.165 786.389 518.74 788.754 512.145Z"
     id="path66" />
  <path
     fill="#F6219B"
     d="M811.867 527.738C816.01 527.693 820.153 527.704 824.296 527.774L819.112 531.28C817.833 531.226 815.857 531.364 814.656 530.985C812.921 530.437 812.67 529.22 811.867 527.738Z"
     id="path67" />
  <path
     fill="#F6219B"
     d="M810.248 541.87C810.657 543.649 811.233 545.334 810.774 547.152C808.3 549.002 774.316 548.417 768.381 548.467C766.521 550.891 765.419 552.927 762.182 553.489C763.049 550.413 764.852 547.875 766.787 545.397C775.47 545.218 801.598 546.159 808.12 544.212C809.558 543.783 809.577 543.139 810.248 541.87Z"
     id="path68" />
  <path
     fill="#F6219B"
     d="M811.601 549.937C814.62 546.119 816.225 539.862 820.666 537.593L813.532 551.997C802.427 553.832 782.877 552.623 771.013 552.619L770.341 549.77C783.863 550.763 798.017 549.979 811.601 549.937Z"
     id="path69" />
  <path
     fill="#FB5CBB"
     d="M751.771 586.71C753.215 582.816 767.317 552.366 769.186 550.467C769.501 550.146 769.956 550.002 770.341 549.77L771.013 552.619C765.667 563.63 760.543 575.123 754.532 585.776C753.61 586.075 752.667 586.343 751.771 586.71Z"
     id="path70" />
  <path
     fill="#F8AEDE"
     d="M791.964 504.575C793.243 502.626 794.215 500.289 795.283 498.205L796.972 500.94C795.372 504.177 793.904 507.826 791.922 510.827L788.754 512.145L791.964 504.575Z"
     id="path71" />
  <path
     fill="#fccae7"
     d="m 909.055,469.714 1.27914,0.003 c -2.24553,4.74832 -9.75334,19.22703 -11.81014,23.63271 -13.154,5.848 -27.185,10.394 -40.684,15.433 -5.99121,2.34478 -22.10088,8.52053 -29.02707,10.92267 2.62719,-6.78655 8.06807,-19.33367 9.36107,-25.14367 -0.98,-0.699 -0.461,-0.484 -1.53,-0.708 -12.099,0.37 -24.206,0 -36.305,0.213 -1.131,2.285 -2.296,4.559 -3.367,6.873 l -1.689,-2.735 c 0.732,-1.627 1.446,-3.778 2.45,-5.234 0.907,-1.315 2.176,-1.888 3.718,-2.11 0.82,-0.118 1.258,-0.181 2.066,-0.512 0.218,-0.09 0.428,-0.199 0.642,-0.298 1.991,0.667 3.976,1.376 5.992,1.963 11.15,0.265 22.343,-0.007 33.494,-0.147 -2.77,6.667 -5.78173,14.5952 -8.23573,21.3852 14.60036,-5.37788 43.82173,-14.9772 54.71773,-24.7932 3.652,-3.291 5.75,-6.903 8.161,-11.126 -13.789,-0.203 -27.29706,-1.12281 -40.81925,-1.76185 3.19404,-0.48293 8.89469,-1.54761 8.89469,-1.54761 14.07444,-0.16249 23.41086,-0.60497 38.02856,-0.90151 z"
     id="path72"
     sodipodi:nodetypes="cccccccccccsccccccccscc" />
  <path
     fill="#F989CD"
     d="M804.159 490.051C806.15 490.718 808.135 491.427 810.151 492.014C807.586 492.028 802.382 491.469 800.385 492.954C806.549 495.19 828.052 492.528 836.644 493.854C824.545 494.224 812.438 493.854 800.339 494.067C799.208 496.352 798.043 498.626 796.972 500.94L795.283 498.205C796.015 496.578 796.729 494.427 797.733 492.971C798.64 491.656 799.909 491.083 801.451 490.861C802.271 490.743 802.709 490.68 803.517 490.349C803.735 490.259 803.945 490.15 804.159 490.051Z"
     id="path73" />
  <path
     fill="#FEE3F7"
     d="M748.297 484.389C750.197 485.878 753.033 488.091 753.772 490.418C751.334 489.796 748.87 489.225 746.455 488.517C744.258 492.885 742.038 497.242 739.796 501.587L709.852 561.286C702.632 575.755 694.765 590.303 689.851 605.766C688.994 607.026 688.249 608.234 686.694 608.699C685.701 608.995 684.539 608.741 683.586 608.476C691.477 591.42 700.361 574.705 708.786 557.902C718.479 538.573 727.863 519.002 738.007 499.909C738.587 498.181 739.539 496.436 740.311 494.773C742.222 490.661 743.813 486.031 748.297 484.389Z"
     id="path74" />
  <path
     fill="#fee3f7"
     d="m 848.61,557.592 c 5.597,-2.394 11.496,-4.667 17.359,-6.304 l -1.769,1.639 0.19,0.505 c 0.204,0.553 0.19,0.339 0.189,0.65 -5.899,2.256 -11.835,4.689 -17.857,6.594 -9.862,3.701 -19.699,7.469 -29.511,11.304 -5.873,2.784 -11.921,5.186 -18.104,7.191 -1.494,3.389 -2.381,6.342 -2.791,10.055 -8.35,-0.293 -38.691,0.331 -44.258,-1.114 l -0.287,-1.402 c 0.896,-0.367 1.839,-0.635 2.761,-0.934 12.684,0.608 25.572,0.196 38.278,0.188 1.47,-3.223 2.885,-6.356 4.849,-9.317 5.114,-2.604 11.074,-4.461 16.537,-6.206 3.64,-1.969 8.101,-3.23 12.003,-4.679 7.441,-2.803 14.912,-5.526 22.411,-8.17 z"
     id="path75"
     sodipodi:nodetypes="ccccccccccccccccc"
     style="fill:#d90099;fill-opacity:1" />
  <path
     fill="#fccae7"
     d="m 865.969,551.288 c 1.382,-0.262 1.829,-0.464 3.127,0.015 0.125,2.535 -24.752,52.184 -28.493,58.637 -3.85,-0.681 -7.944,-1.102 -11.855,-1.099 -2.348,0.002 -4.621,0.335 -6.966,0.037 l 0.003,-0.018 c 4.902,-0.143 10.118,-0.675 14.79,-2.211 0.187,-0.061 0.372,-0.129 0.558,-0.193 3.31,-2.352 6.596,-15.663 7.95,-20.226 1.317,-2.614 3.867,-4.934 5.5,-7.461 4.008,-6.204 7.061,-12.955 10.627,-19.41 1.026,-1.857 2.554,-3.312 3.369,-5.277 0.001,-0.311 0.015,-0.097 -0.189,-0.65 l -0.19,-0.505 z"
     id="path76"
     sodipodi:nodetypes="cccsccccccscccc"
     style="fill:#d90099;fill-opacity:1" />
  <path
     fill="#FB5CBB"
     d="M826.674 606.869C830.174 606.597 833.623 606.462 837.133 606.456C836.947 606.52 836.762 606.588 836.575 606.649C831.903 608.185 826.687 608.717 821.785 608.86L821.782 608.878C824.127 609.176 826.4 608.843 828.748 608.841C832.659 608.838 836.753 609.259 840.603 609.94L839.907 610.298C833.918 611.351 826.993 610.745 820.894 610.73L785.483 610.547C778.071 609.975 765.533 611.792 759.127 609.273L759.113 608.538C767.905 604.869 790.697 609.26 801.492 606.546C804.932 606.652 808.451 607.123 811.875 607.045C816.74 607.606 821.789 607.053 826.674 606.869Z"
     id="path77" />
  <path
     fill="#F8AEDE"
     d="M826.674 606.869C830.174 606.597 833.623 606.462 837.133 606.456C836.947 606.52 836.762 606.588 836.575 606.649C831.903 608.185 826.687 608.717 821.785 608.86L821.782 608.878C824.127 609.176 826.4 608.843 828.748 608.841C832.659 608.838 836.753 609.259 840.603 609.94L839.907 610.298C832.362 609.473 808.891 611.586 804.173 609.951C802.723 609.448 802.202 607.792 801.492 606.546C804.932 606.652 808.451 607.123 811.875 607.045C816.74 607.606 821.789 607.053 826.674 606.869Z"
     id="path78" />
  <defs
     id="defs79">
    <linearGradient
       id="gradient_2"
       gradientUnits="userSpaceOnUse"
       x1="750.34363"
       y1="469.45956"
       x2="749.99268"
       y2="471.89206">
      <stop
         offset="0"
         stop-color="#FCBDE7"
         id="stop78" />
      <stop
         offset="1"
         stop-color="#F4E4EF"
         id="stop79" />
    </linearGradient>
  </defs>
  <path
     fill="url(#gradient_2)"
     d="m 733.88297,469.45825 c 3.193,0.089 19.20129,0.0186 22.31278,0.0959 1.66881,0.0407 2.48516,0.0436 4.75801,0.0604 l -4.04876,2.15449 c -5.29,0.93847 -6.94925,1.24988 -11.351,2.187 5.131,7.359 11.231,14.182 17.126,20.94 -2.913,-1.717 -5.687,-3.393 -8.908,-4.478 -0.739,-2.327 -3.575,-4.54 -5.475,-6.029 -3.591,-3.778 -7.75263,-7.3085 -11.08163,-11.2975 -0.999,-1.195 -1.80913,-1.85475 -3.3324,-3.63325 z"
     id="path79"
     sodipodi:nodetypes="ccccccccccc"
     style="fill:url(#gradient_2)" />
  <path
     fill="#F6219B"
     d="M836.262 602.756C838.536 597.617 840.775 589.929 845.083 586.23C843.729 590.793 840.443 604.104 837.133 606.456C833.623 606.462 830.174 606.597 826.674 606.869C821.789 607.053 816.74 607.606 811.875 607.045C817.017 606.845 821.408 604.746 826.387 603.643C829.581 602.936 833 602.893 836.262 602.756Z"
     id="path80" />
  <path
     fill="#F8AEDE"
     d="M683.586 608.476C684.539 608.741 685.701 608.995 686.694 608.699C688.249 608.234 688.994 607.026 689.851 605.766C691.983 607.53 696.484 607.327 699.258 607.557C704.906 608.023 710.459 608.478 715.955 609.962C711.367 610.308 706.71 610.142 702.154 610.57C696.112 610.686 689.335 611.284 683.404 610.195C683.366 609.616 683.5 609.049 683.586 608.476Z"
     id="path81" />
  <path
     fill="#FCCAE7"
     d="M683.586 608.476C684.539 608.741 685.701 608.995 686.694 608.699C688.249 608.234 688.994 607.026 689.851 605.766C691.983 607.53 696.484 607.327 699.258 607.557L699.535 608.977C696.018 611.26 687.746 609.62 683.404 610.195C683.366 609.616 683.5 609.049 683.586 608.476Z"
     id="path82" />
  <path
     fill="#f8aede"
     d="m 797.22,470.365 c 5.81215,-0.0217 35.73123,-0.15762 40.713,-0.112 l 2.62871,-0.14252 c -0.53899,0.43585 -1.79532,1.36813 -2.51171,2.08252 -4.46305,0.0195 -30.556,0.384 -36.268,0.234 -1.682,0.108 -4.5605,-0.0449 -6.88916,-0.004 z"
     id="path83"
     sodipodi:nodetypes="ccccccc" />
</svg>
