<?xml version="1.0" encoding="utf-8" ?>
<svg xmlns="http://www.w3.org/2000/svg" xmlns:xlink="http://www.w3.org/1999/xlink" width="1080" height="1080">
	<path fill="#DF0093" d="M360.621 325.786C372.106 324.451 390.171 325.777 402.348 325.808L433.46 325.776C439.645 325.753 445.94 325.43 452.102 325.957L452.017 326.272C453.636 326.521 454.052 326.302 455.072 327.647C455.069 329.058 455.088 330.469 455.128 331.879C444.803 333.202 440.097 334.797 431.747 340.881C431.137 344.109 429.857 348.304 430.384 351.56C431.821 360.433 437.727 369.924 441.742 377.933C449.486 393.38 458.754 409.84 465.523 425.535C469.062 431.543 472.003 438.027 475.125 444.266L491.853 477.772C494.999 484.085 497.929 490.969 501.778 496.863C502.415 496.541 502.921 496.491 503.201 495.78C503.954 493.867 503.992 370.939 503.33 361.313C502.92 355.332 502.121 349.328 499.501 343.875C496.659 337.957 493.365 335.635 487.415 333.549C487.062 333.384 486.712 333.213 486.35 333.066C484.307 332.24 482.539 331.659 481.521 329.505C481.14 328.7 481.383 328.568 481.647 327.801C485.981 323.934 500.403 325.737 506.367 325.875C522.2 325.246 538.283 325.893 554.143 325.861C567.539 325.833 581.4 324.948 594.732 326.003C598.48 325.735 602.926 324.948 606.241 327.203C606.892 327.645 606.727 328.308 606.802 329.013C603.253 333.157 596.887 331.666 592.1 333.577C588.222 335.126 584.966 337.956 581.752 340.562C579.712 345.937 577.403 351.301 576.786 357.065C577.235 367.115 577.737 377.99 576.897 388.009C577.341 403.511 577.02 419.077 576.996 434.587L576.936 496.364L577.969 496.637C579.023 496.069 579.444 495.302 580.008 494.288C584.287 486.593 587.968 478.424 591.899 470.535L616.285 421.705L636.744 381.066C641.231 372.123 646.625 362.855 649.503 353.262C650.136 351.155 651.162 348.519 650.052 346.456C648.413 343.065 646.575 339.951 644.422 336.864C639.142 334.657 633.823 332.853 628.157 331.95C628.461 329.132 628.858 327.898 630.818 325.792C637.863 325.537 644.916 325.566 651.959 325.882L691.597 325.899C697.408 325.903 703.764 326.483 709.488 325.816C712.351 327.25 714.791 328.681 717.236 330.79C717.193 330.997 717.153 331.205 717.106 331.412C715.168 339.973 701.984 363.517 697.239 372.965L641.996 483.495L625.496 516.415C622.259 522.832 618.482 529.306 616.005 536.048C614.949 538.921 614.554 542.774 615.333 545.756C617.317 553.352 622.797 561.552 626.388 568.547L642.856 601.353L707.29 730.679C709.147 734.343 717.01 747.773 716.774 750.895C716.697 751.914 715.256 753.006 714.438 753.507C714.17 753.67 713.899 753.827 713.629 753.988C712.44 755.368 710.684 756.244 709.149 757.218C686.834 757.547 664.484 757.292 642.165 757.281C635.445 757.278 621.596 758.263 615.724 757.051C615.344 755.828 615.357 755.646 615.671 754.4C619.501 753.157 623.9 753.653 627.913 753.162L628.535 753.082C631.834 752.128 635.268 751.622 638.557 750.625C643.406 749.155 645.577 747.204 647.962 742.865L650.309 738.766C649.649 735.787 649.456 732.732 648.842 729.745C646.895 720.263 628.123 685.849 622.61 674.861C608.574 646.888 595.2 618.419 580.603 590.744C579.87 589.354 579.292 588.024 577.929 587.143L576.927 587.399L577.007 649.686C577.012 660.204 577.661 671.125 576.925 681.592C577.222 691.911 577.298 702.436 576.897 712.751C577.341 726.137 576.749 731.554 581.788 744.282C583.435 745.593 585.564 746.933 586.971 748.465C594.873 754.412 601.683 751.934 605.333 754.473L605.385 756.009C604.525 756.867 604.303 757.053 603.042 757.222C597.136 758.018 590.169 757.344 584.163 757.345L542.011 757.338C537.299 757.333 531.95 757.748 527.312 756.96C519.021 755.862 509.573 756.735 501.163 756.767C490.988 756.799 476.725 758.423 467.025 755.871C467.154 755.812 467.281 755.751 467.411 755.695C467.627 755.601 467.847 755.515 468.062 755.419C472.571 753.401 478.29 753.51 483.156 752.625C491.162 751.169 494.78 747.739 499.271 741.324C500.868 737.83 501.975 734.133 502.56 730.336C503.41 724.757 503.474 718.916 503.565 713.272C503.721 703.678 504.271 590.397 503.275 588.131C503.039 587.595 502.584 587.186 502.239 586.713C498.106 591.679 495.454 599.012 492.539 604.844L476.523 636.86L448.126 693.667C442.6 704.733 436.315 715.913 431.939 727.494C430.249 731.966 430.228 737.207 430.234 741.96C436.828 748.855 440.379 750.852 449.783 752.823C454.267 753.431 461.968 752.562 465.66 755.225L465.768 756.158C465.411 756.418 465.21 756.609 464.729 756.701C460.72 757.47 442.844 756.737 437.427 756.744C413.123 756.775 388.69 757.327 364.399 756.679C364.321 752.411 364.667 748.258 365.772 744.125C369.318 736.74 373.382 729.628 377.069 722.315L404.391 667.512L466.822 542.531C457.899 521.449 447.284 501.155 437.045 480.691L392.2 391.112C385.247 377.176 377.982 363.389 371.353 349.295C369.595 345.988 367.558 342.634 366.292 339.113C363.693 335.578 361.219 330.154 360.621 325.786Z"/>
	<path fill="#FDCFE9" d="M710.207 752.931C709.168 749.962 707.422 747.562 705.753 744.932C697.597 732.075 691.465 717.779 684.657 704.164L647.973 630.855L621.864 578.603C617.046 569.087 610.915 559.201 607.421 549.181C605.812 544.566 606.093 538.298 606.915 533.503C608.05 526.883 623.573 498.627 627.389 490.995L679.42 386.858C686.91 371.852 694.114 356.61 701.958 341.792C703.739 338.428 708.825 333.398 709.217 329.942C709.35 328.765 708.911 327.698 708.162 326.814C708.048 326.68 707.917 326.563 707.794 326.438L709.488 325.816C712.351 327.25 714.791 328.681 717.236 330.79C717.193 330.997 717.153 331.205 717.106 331.412C715.168 339.973 701.984 363.517 697.239 372.965L641.996 483.495L625.496 516.415C622.259 522.832 618.482 529.306 616.005 536.048C614.949 538.921 614.554 542.774 615.333 545.756C617.317 553.352 622.797 561.552 626.388 568.547L642.856 601.353L707.29 730.679C709.147 734.343 717.01 747.773 716.774 750.895C716.697 751.914 715.256 753.006 714.438 753.507C714.17 753.67 713.899 753.827 713.629 753.988C713.598 753.955 713.574 753.914 713.535 753.891C713.232 753.711 712.918 753.552 712.61 753.383L712.24 752.398L710.207 752.931Z"/>
	<path fill="#FDCFE9" d="M438.934 328.815C442.396 327.007 448.152 326.814 452.017 326.272C453.636 326.521 454.052 326.302 455.072 327.647C455.069 329.058 455.088 330.469 455.128 331.879C444.803 333.202 440.097 334.797 431.747 340.881C431.137 344.109 429.857 348.304 430.384 351.56C431.821 360.433 437.727 369.924 441.742 377.933C449.486 393.38 458.754 409.84 465.523 425.535C469.062 431.543 472.003 438.027 475.125 444.266L491.853 477.772C494.999 484.085 497.929 490.969 501.778 496.863C501.826 497.055 501.867 497.248 501.924 497.437C502.617 499.753 504.274 501.584 503.968 504.098L502.984 505.756C504.479 508.577 506.088 511.346 507.087 514.388C502.465 511.219 501.935 505.743 495.9 503.726C494.918 502.627 494.258 501.346 493.532 500.069C488.591 491.387 484.374 482.18 479.91 473.243L456.004 425.375L436.491 386.394C430.81 375.042 423.863 363.087 420.789 350.713C419.615 345.989 422.075 337.707 423.351 333.015C429.529 331.684 431.757 328.95 438.934 328.815Z"/>
	<defs>
		<linearGradient id="gradient_0" gradientUnits="userSpaceOnUse" x1="443.11719" y1="344.9501" x2="438.12766" y2="329.60791">
			<stop offset="0" stop-color="#FFEEF7"/>
			<stop offset="1" stop-color="#FEFFFF"/>
		</linearGradient>
	</defs>
	<path fill="url(#gradient_0)" d="M438.934 328.815C442.396 327.007 448.152 326.814 452.017 326.272C453.636 326.521 454.052 326.302 455.072 327.647C455.069 329.058 455.088 330.469 455.128 331.879C444.803 333.202 440.097 334.797 431.747 340.881C431.137 344.109 429.857 348.304 430.384 351.56C431.821 360.433 437.727 369.924 441.742 377.933C449.486 393.38 458.754 409.84 465.523 425.535C464.575 426.203 465.109 426.058 463.906 425.918C460.007 420.516 457.137 413.174 454.104 407.189L432.612 364.395C432.893 361.193 427.775 352.115 427.887 345.73C428.078 334.933 432.21 335.587 438.556 329.205C438.684 329.077 438.808 328.945 438.934 328.815Z"/>
	<path fill="#FE23A3" d="M432.612 364.395L454.104 407.189C457.137 413.174 460.007 420.516 463.906 425.918C465.109 426.058 464.575 426.203 465.523 425.535C469.062 431.543 472.003 438.027 475.125 444.266L491.853 477.772C494.999 484.085 497.929 490.969 501.778 496.863C501.826 497.055 501.867 497.248 501.924 497.437C502.617 499.753 504.274 501.584 503.968 504.098L502.984 505.756C497.738 497.78 493.784 489.087 489.555 480.554L472.336 445.863L446.723 394.532C442.188 385.439 437.297 376.352 433.173 367.07C432.726 366.063 432.623 365.476 432.612 364.395Z"/>
	<defs>
		<linearGradient id="gradient_1" gradientUnits="userSpaceOnUse" x1="453.6048" y1="656.3114" x2="478.82025" y2="667.74475">
			<stop offset="0" stop-color="#FCC8E6"/>
			<stop offset="1" stop-color="#FFF7FE"/>
		</linearGradient>
	</defs>
	<path fill="url(#gradient_1)" d="M421.292 745.316C421.209 739.83 420.791 734.041 421.407 728.592C421.961 723.701 424.825 718.198 426.876 713.742C440.008 685.217 455.54 656.295 469.625 628.034L485.076 597.047C487.831 591.526 490.395 585.268 493.893 580.197C496.64 576.217 501.313 573.231 505.131 570.319C504.429 572.097 503.762 573.808 503.323 575.671L505.332 574.902C505.961 576.194 503.05 578.854 502.203 579.705C500.503 581.412 498.474 583.069 497.307 585.202C491.454 595.891 486.357 607.174 480.972 618.11L455.711 669.02C451.64 677.296 447.519 685.549 443.35 693.777C441.076 698.298 438.209 703.092 436.655 707.892C437.539 707.557 481.955 618.939 486.202 610.447C490.392 602.067 494.052 592.518 499.218 584.759C500.274 583.173 501.68 581.883 503.479 581.201C504.556 580.793 504.071 580.833 505.209 581.307C504.879 583.551 503.562 584.94 502.239 586.713C498.106 591.679 495.454 599.012 492.539 604.844L476.523 636.86L448.126 693.667C442.6 704.733 436.315 715.913 431.939 727.494C430.249 731.966 430.228 737.207 430.234 741.96C436.828 748.855 440.379 750.852 449.783 752.823C448.86 753.687 448.752 753.913 447.422 753.897C445.396 753.874 443.38 752.93 441.381 753.114C432.749 751.649 429.023 747.994 421.292 745.316Z"/>
	<path fill="#FDCFE9" d="M594.732 326.003C598.48 325.735 602.926 324.948 606.241 327.203C606.892 327.645 606.727 328.308 606.802 329.013C603.253 333.157 596.887 331.666 592.1 333.577C588.222 335.126 584.966 337.956 581.752 340.562C579.712 345.937 577.403 351.301 576.786 357.065C577.235 367.115 577.737 377.99 576.897 388.009C577.341 403.511 577.02 419.077 576.996 434.587L576.936 496.364C576.52 497.966 575.911 498.777 574.867 499.993C576.284 503.038 577.44 506.14 578.591 509.291C575.748 506.042 570.749 503.714 569.007 499.938C568.114 498.001 568.12 495.898 568.045 493.807C567.699 484.187 567.971 474.467 567.97 464.838L567.987 410.896L568.016 375.63C568.026 367.19 567.806 358.441 568.738 350.047C569.394 344.142 571.915 338.523 574.096 333.053C579.299 331.378 584.431 329.311 589.611 327.536C591.283 326.842 592.977 326.434 594.732 326.003Z"/>
	<path fill="#FD94CF" d="M594.732 326.003C598.48 325.735 602.926 324.948 606.241 327.203C606.892 327.645 606.727 328.308 606.802 329.013C603.253 333.157 596.887 331.666 592.1 333.577C588.222 335.126 584.966 337.956 581.752 340.562C579.712 345.937 577.403 351.301 576.786 357.065C577.235 367.115 577.737 377.99 576.897 388.009C577.341 403.511 577.02 419.077 576.996 434.587L576.936 496.364C576.52 497.966 575.911 498.777 574.867 499.993C574.275 498.892 573.885 497.522 573.425 496.348C573.331 495.88 573.338 495.97 573.284 495.474C572.529 488.648 573.081 481.274 573.125 474.389C573.223 461.74 573.257 449.091 573.227 436.442L572.685 385.603C572.658 375.604 572.463 365.562 573.52 355.605C574.052 350.596 576.578 337.967 579.821 334.6C580.821 333.562 581.805 333.513 583.161 333.492C585.835 332.008 587.96 330.12 589.611 327.536C591.283 326.842 592.977 326.434 594.732 326.003Z"/>
	<path fill="#FE23A3" d="M576.897 388.009C577.341 403.511 577.02 419.077 576.996 434.587L576.936 496.364C576.52 497.966 575.911 498.777 574.867 499.993C574.275 498.892 573.885 497.522 573.425 496.348C574.337 488.651 573.701 480.059 573.717 472.262L573.863 422.67C573.889 419.529 576.014 417.737 576.23 414.912C576.91 405.99 575.984 396.937 576.897 388.009Z"/>
	<defs>
		<linearGradient id="gradient_2" gradientUnits="userSpaceOnUse" x1="592.31152" y1="345.41226" x2="587.76007" y2="328.79239">
			<stop offset="0" stop-color="#FFEEF5"/>
			<stop offset="1" stop-color="#FEFFFF"/>
		</linearGradient>
	</defs>
	<path fill="url(#gradient_2)" d="M594.732 326.003C598.48 325.735 602.926 324.948 606.241 327.203C606.892 327.645 606.727 328.308 606.802 329.013C603.253 333.157 596.887 331.666 592.1 333.577C588.222 335.126 584.966 337.956 581.752 340.562C579.712 345.937 577.403 351.301 576.786 357.065L575.961 356.77C574.992 355.148 575.264 352.877 575.511 351.076C576.238 345.772 578.893 336.782 583.161 333.492C585.835 332.008 587.96 330.12 589.611 327.536C591.283 326.842 592.977 326.434 594.732 326.003Z"/>
	<path fill="#FDCFE9" d="M573.884 747.223C571.386 741.15 569.298 735.186 568.655 728.606C567.439 716.167 567.981 703.423 567.973 690.931L568.015 628.621L568.03 601.337C567.988 595.695 567.241 589.344 568.239 583.807C568.873 580.286 571.732 573.69 574.67 571.613L575.519 571.809L576.301 573.761L577.691 574.325C578.158 577.422 574.984 581.631 573.48 584.228L573.962 586.899C574.6 584.946 575.092 582.963 576.955 581.836L578.228 581.807L578.904 582.465C578.893 584.465 576.83 585.3 576.927 587.399L577.007 649.686C577.012 660.204 577.661 671.125 576.925 681.592C577.222 691.911 577.298 702.436 576.897 712.751C577.341 726.137 576.749 731.554 581.788 744.282C583.435 745.593 585.564 746.933 586.971 748.465L585.754 749.114C586.404 750.806 587.958 751.49 589.145 752.84C587.182 752.644 585.241 751.9 583.361 751.32C580.171 750.06 577.033 748.589 573.884 747.223Z"/>
	<path fill="#FE23A3" d="M573.962 586.899C574.6 584.946 575.092 582.963 576.955 581.836L578.228 581.807L578.904 582.465C578.893 584.465 576.83 585.3 576.927 587.399L577.007 649.686C577.012 660.204 577.661 671.125 576.925 681.592C577.222 691.911 577.298 702.436 576.897 712.751C574.51 704.575 578.333 687.403 575.493 680.547C575.354 682.955 575.192 685.105 574.447 687.426C573.722 686.546 573.578 678.893 573.238 676.961C573.681 656.038 573.424 635.046 573.332 614.116C573.306 608.416 572.278 587.969 573.48 584.228L573.962 586.899Z"/>
	<path fill="#FE69C4" d="M573.48 584.228L573.962 586.899C573.3 594.867 573.239 651.213 574.713 657.024L574.855 656.081C576.251 664.636 575.632 674.319 576.925 681.592C577.222 691.911 577.298 702.436 576.897 712.751C574.51 704.575 578.333 687.403 575.493 680.547C575.354 682.955 575.192 685.105 574.447 687.426C573.722 686.546 573.578 678.893 573.238 676.961C573.681 656.038 573.424 635.046 573.332 614.116C573.306 608.416 572.278 587.969 573.48 584.228Z"/>
	<path fill="#FD94CF" d="M573.238 676.961C573.578 678.893 573.722 686.546 574.447 687.426C575.192 685.105 575.354 682.955 575.493 680.547C578.333 687.403 574.51 704.575 576.897 712.751C577.341 726.137 576.749 731.554 581.788 744.282C583.435 745.593 585.564 746.933 586.971 748.465L585.754 749.114C586.404 750.806 587.958 751.49 589.145 752.84C587.182 752.644 585.241 751.9 583.361 751.32C584.037 750.943 583.767 751.216 584.129 750.462C583.412 749.804 582.713 749.126 581.994 748.471C581.584 748.097 581.15 747.754 580.788 747.329C570.061 734.719 572.151 693.769 573.238 676.961Z"/>
	<path fill="#FBF2FA" d="M647.962 742.865L649.845 741.704C650.447 742.472 650.338 742.632 650.194 743.57C649.851 745.798 648.888 747.984 648.338 750.179C650.173 751.229 651.926 752.184 653.457 753.671C658.217 755.181 702.921 753.998 710.207 752.931L712.24 752.398L712.61 753.383C712.918 753.552 713.232 753.711 713.535 753.891C713.574 753.914 713.598 753.955 713.629 753.988C712.44 755.368 710.684 756.244 709.149 757.218C686.834 757.547 664.484 757.292 642.165 757.281C635.445 757.278 621.596 758.263 615.724 757.051C615.344 755.828 615.357 755.646 615.671 754.4C619.501 753.157 623.9 753.653 627.913 753.162L628.535 753.082C631.834 752.128 635.268 751.622 638.557 750.625C643.406 749.155 645.577 747.204 647.962 742.865Z"/>
	<path fill="#FDCFE9" d="M647.962 742.865L649.845 741.704C650.447 742.472 650.338 742.632 650.194 743.57C649.851 745.798 648.888 747.984 648.338 750.179C650.173 751.229 651.926 752.184 653.457 753.671C645.17 753.162 636.828 753.784 628.535 753.082C631.834 752.128 635.268 751.622 638.557 750.625C643.406 749.155 645.577 747.204 647.962 742.865Z"/>
	<path fill="#FE69C4" d="M365.772 744.125L367.399 743.364L368.098 743.854C367.783 746.719 366.548 749.139 366.735 752.07C373.264 750.258 379.195 752.106 385.538 753.663C389.198 753.445 393.336 754.125 397.07 754.214C406.125 754.378 415.183 754.43 424.24 754.37C429.7 754.356 435.421 754.629 440.837 753.945L441.381 753.114C443.38 752.93 445.396 753.874 447.422 753.897C448.752 753.913 448.86 753.687 449.783 752.823C454.267 753.431 461.968 752.562 465.66 755.225L465.768 756.158C465.411 756.418 465.21 756.609 464.729 756.701C460.72 757.47 442.844 756.737 437.427 756.744C413.123 756.775 388.69 757.327 364.399 756.679C364.321 752.411 364.667 748.258 365.772 744.125Z"/>
	<path fill="#FDCFE9" d="M366.735 752.07C373.264 750.258 379.195 752.106 385.538 753.663L384.392 755.085C380.73 756.441 371.669 756.31 367.849 755.504C366.611 755.243 366.489 755.169 365.863 754.15L366.735 752.07Z"/>
	<path fill="#FBF2FA" d="M589.145 752.84C587.958 751.49 586.404 750.806 585.754 749.114L586.971 748.465C594.873 754.412 601.683 751.934 605.333 754.473L605.385 756.009C604.525 756.867 604.303 757.053 603.042 757.222C597.136 758.018 590.169 757.344 584.163 757.345L542.011 757.338C537.299 757.333 531.95 757.748 527.312 756.96L528.162 754.202C534.336 753.96 587.966 754.504 589.343 753.58L589.145 752.84Z"/>
	<path fill="#FD94CF" d="M630.818 325.792C637.863 325.537 644.916 325.566 651.959 325.882L651.968 326.379L652.724 327.498L652.521 328.421C651.151 329.191 650.107 329.471 649.384 330.892C649.829 335.559 651.803 340.064 651.094 344.751C650.789 345.565 650.687 345.818 650.052 346.456C648.413 343.065 646.575 339.951 644.422 336.864C639.142 334.657 633.823 332.853 628.157 331.95C628.461 329.132 628.858 327.898 630.818 325.792Z"/>
	<path fill="#FDCFE9" d="M651.968 326.379L652.724 327.498L652.521 328.421C651.151 329.191 650.107 329.471 649.384 330.892C649.829 335.559 651.803 340.064 651.094 344.751C645.329 332.726 645.129 332.944 633.545 326.995C636.499 326.663 639.979 326.145 642.929 326.581C644.417 326.802 644.247 327.145 645.074 328.295L645.824 326.953C647.473 326.05 650.112 326.386 651.968 326.379Z"/>
	<path fill="#FDCFE9" d="M499.271 741.324L501.555 740.254L502.18 740.674C501.97 743.49 499.676 746.442 498.489 749.013C501.436 750.699 504.338 752.482 507.525 753.683C505.819 755.35 503.503 756.339 501.163 756.767C490.988 756.799 476.725 758.423 467.025 755.871C467.154 755.812 467.281 755.751 467.411 755.695C467.627 755.601 467.847 755.515 468.062 755.419C472.571 753.401 478.29 753.51 483.156 752.625C491.162 751.169 494.78 747.739 499.271 741.324Z"/>
	<path fill="#FDCFE9" d="M487.415 333.549C487.062 333.384 486.712 333.213 486.35 333.066C484.307 332.24 482.539 331.659 481.521 329.505C481.14 328.7 481.383 328.568 481.647 327.801C485.981 323.934 500.403 325.737 506.367 325.875C505.974 327.045 506.252 327.008 505.024 327.61C502.853 328.675 500.12 329.017 497.757 329.499C499.55 335.235 502.6 340.544 503.05 346.601C500.652 342.693 497.375 333.54 492.56 332.514C491.057 332.194 488.931 333.169 487.415 333.549Z"/>
	<path fill="#FE23A3" d="M495.9 503.726C501.935 505.743 502.465 511.219 507.087 514.388L508.252 514.997C511.858 520.217 512.097 530.32 512.664 536.589C508.088 525.715 497.69 515.478 495.9 503.726Z"/>
	<path fill="#FDCFE9" d="M366.292 339.113C366.245 335.836 364.253 333.853 363.127 330.94C362.58 329.526 362.472 328.775 363.097 327.411C363.535 327.218 364.167 326.904 364.641 326.864C366.017 326.747 366.669 327.269 367.666 328.041L367.203 329.234C368.121 332.267 368.783 333.025 371.498 334.676C372.21 335.109 372.422 335.319 372.732 336.082C372.33 337.251 371.866 338.292 371.293 339.387C371.924 342.074 373.453 346.163 372.895 348.798C372.325 349.066 371.99 349.238 371.353 349.295C369.595 345.988 367.558 342.634 366.292 339.113Z"/>
	<path fill="#FD94CF" d="M360.621 325.786C369.108 326.139 377.616 325.776 386.096 326.156C381.994 327.657 378.455 328.962 374.037 329.099C371.661 329.173 369.591 328.842 367.203 329.234L367.666 328.041C366.669 327.269 366.017 326.747 364.641 326.864C364.167 326.904 363.535 327.218 363.097 327.411C362.472 328.775 362.58 329.526 363.127 330.94C364.253 333.853 366.245 335.836 366.292 339.113C363.693 335.578 361.219 330.154 360.621 325.786Z"/>
	<path fill="#FD94CF" d="M507.525 753.683C513.919 755.102 521.639 754.742 528.162 754.202L527.312 756.96C519.021 755.862 509.573 756.735 501.163 756.767C503.503 756.339 505.819 755.35 507.525 753.683Z"/>
	<path fill="#FE23A3" d="M475.932 543C476.389 543.432 476.428 543.807 476.611 544.394C473.676 552.907 468.134 561.515 463.579 569.278L463.041 568.77C465.31 561.408 471.204 549.055 475.932 543Z"/>
	<path fill="#FBF2FA" d="M628.157 331.95C626.122 331.813 624.12 331.817 622.081 331.82C619.705 331.824 616.889 332.216 615.263 330.028C614.47 328.962 614.492 328.324 614.631 327.115C617.307 324.545 626.931 325.731 630.818 325.792C628.858 327.898 628.461 329.132 628.157 331.95Z"/>
	<path fill="#FD94CF" d="M452.102 325.957C457.182 325.761 465.564 324.536 469.56 328.171C469.192 329.263 469.415 329.352 468.304 329.925C464.601 331.836 459.242 331.643 455.128 331.879C455.088 330.469 455.069 329.058 455.072 327.647C454.052 326.302 453.636 326.521 452.017 326.272L452.102 325.957Z"/>
</svg>
